<svg xmlns="http://www.w3.org/2000/svg" width="1440" height="900"><path d="M590,655L439,700L522,883Z" fill="#8d8d8d" stroke="#8d8d8d" stroke-width="1.51"/><path d="M522,883L617,875L590,655Z" fill="#858585" stroke="#858585" stroke-width="1.51"/><path d="M439,700L212,685L522,883Z" fill="#939393" stroke="#939393" stroke-width="1.51"/><path d="M172,492L212,685L439,700Z" fill="#a2a2a2" stroke="#a2a2a2" stroke-width="1.51"/><path d="M590,655L532,385L439,700Z" fill="#999999" stroke="#999999" stroke-width="1.51"/><path d="M532,385L172,492L439,700Z" fill="#a5a5a5" stroke="#a5a5a5" stroke-width="1.51"/><path d="M532,385L137,214L172,492Z" fill="#b6b6b6" stroke="#b6b6b6" stroke-width="1.51"/><path d="M590,655L642,317L532,385Z" fill="#9e9e9e" stroke="#9e9e9e" stroke-width="1.51"/><path d="M1082,321L642,317L590,655Z" fill="#949494" stroke="#949494" stroke-width="1.51"/><path d="M617,875L1037,810L590,655Z" fill="#7c7c7c" stroke="#7c7c7c" stroke-width="1.51"/><path d="M609,1371L929,1010L617,875Z" fill="#636363" stroke="#636363" stroke-width="1.51"/><path d="M-89,722L108,944L212,685Z" fill="#9e9e9e" stroke="#9e9e9e" stroke-width="1.51"/><path d="M212,685L108,944L522,883Z" fill="#929292" stroke="#929292" stroke-width="1.51"/><path d="M522,883L609,1371L617,875Z" fill="#6f6f6f" stroke="#6f6f6f" stroke-width="1.51"/><path d="M929,1010L1037,810L617,875Z" fill="#6e6e6e" stroke="#6e6e6e" stroke-width="1.51"/><path d="M642,317L633,269L532,385Z" fill="#a7a7a7" stroke="#a7a7a7" stroke-width="1.51"/><path d="M915,36L633,269L642,317Z" fill="#a9a9a9" stroke="#a9a9a9" stroke-width="1.51"/><path d="M108,944L385,1302L522,883Z" fill="#7d7d7d" stroke="#7d7d7d" stroke-width="1.51"/><path d="M385,1302L609,1371L522,883Z" fill="#656565" stroke="#656565" stroke-width="1.51"/><path d="M172,492L-89,722L212,685Z" fill="#a9a9a9" stroke="#a9a9a9" stroke-width="1.51"/><path d="M108,944L142,1298L385,1302Z" fill="#737373" stroke="#737373" stroke-width="1.51"/><path d="M385,1302L476,1488L609,1371Z" fill="#575757" stroke="#575757" stroke-width="1.51"/><path d="M0,1394L142,1298L108,944Z" fill="#767676" stroke="#767676" stroke-width="1.51"/><path d="M369,51L137,214L532,385Z" fill="#bfbfbf" stroke="#bfbfbf" stroke-width="1.51"/><path d="M172,492L-124,338L-89,722Z" fill="#b6b6b6" stroke="#b6b6b6" stroke-width="1.51"/><path d="M1037,810L1082,321L590,655Z" fill="#818181" stroke="#818181" stroke-width="1.51"/><path d="M609,1371L812,1431L929,1010Z" fill="#505050" stroke="#505050" stroke-width="1.51"/><path d="M929,1010L1257,1086L1037,810Z" fill="#5c5c5c" stroke="#5c5c5c" stroke-width="1.51"/><path d="M476,1488L812,1431L609,1371Z" fill="#4e4e4e" stroke="#4e4e4e" stroke-width="1.51"/><path d="M244,1580L476,1488L385,1302Z" fill="#5c5c5c" stroke="#5c5c5c" stroke-width="1.51"/><path d="M694,-135L369,51L633,269Z" fill="#bbbbbb" stroke="#bbbbbb" stroke-width="1.51"/><path d="M633,269L369,51L532,385Z" fill="#b4b4b4" stroke="#b4b4b4" stroke-width="1.51"/><path d="M-89,722L-214,897L108,944Z" fill="#9e9e9e" stroke="#9e9e9e" stroke-width="1.51"/><path d="M-330,794L-214,897L-89,722Z" fill="#a7a7a7" stroke="#a7a7a7" stroke-width="1.51"/><path d="M1065,1381L1257,1086L929,1010Z" fill="#494949" stroke="#494949" stroke-width="1.51"/><path d="M1037,810L1385,639L1082,321Z" fill="#727272" stroke="#727272" stroke-width="1.51"/><path d="M137,214L-124,338L172,492Z" fill="#c1c1c1" stroke="#c1c1c1" stroke-width="1.51"/><path d="M-117,222L-124,338L137,214Z" fill="#cccccc" stroke="#cccccc" stroke-width="1.51"/><path d="M812,1431L1065,1381L929,1010Z" fill="#474747" stroke="#474747" stroke-width="1.51"/><path d="M1082,321L915,36L642,317Z" fill="#9f9f9f" stroke="#9f9f9f" stroke-width="1.51"/><path d="M1082,321L1091,157L915,36Z" fill="#9a9a9a" stroke="#9a9a9a" stroke-width="1.51"/><path d="M1197,117L1091,157L1082,321Z" fill="#929292" stroke="#929292" stroke-width="1.51"/><path d="M142,1298L244,1580L385,1302Z" fill="#616161" stroke="#616161" stroke-width="1.51"/><path d="M-298,969L0,1394L108,944Z" fill="#858585" stroke="#858585" stroke-width="1.51"/><path d="M369,51L239,-26L137,214Z" fill="#cccccc" stroke="#cccccc" stroke-width="1.51"/><path d="M354,-230L239,-26L369,51Z" fill="#d1d1d1" stroke="#d1d1d1" stroke-width="1.51"/><path d="M-170,-31L-117,222L137,214Z" fill="#d5d5d5" stroke="#d5d5d5" stroke-width="1.51"/><path d="M-330,794L-298,969L-214,897Z" fill="#a2a2a2" stroke="#a2a2a2" stroke-width="1.51"/><path d="M1257,1086L1385,639L1037,810Z" fill="#5d5d5d" stroke="#5d5d5d" stroke-width="1.51"/><path d="M-214,897L-298,969L108,944Z" fill="#9a9a9a" stroke="#9a9a9a" stroke-width="1.51"/><path d="M-330,794L-89,722L-362,523Z" fill="#b1b1b1" stroke="#b1b1b1" stroke-width="1.51"/><path d="M30,1483L244,1580L142,1298Z" fill="#656565" stroke="#656565" stroke-width="1.51"/><path d="M476,1488L954,1538L812,1431Z" fill="#484848" stroke="#484848" stroke-width="1.51"/><path d="M812,1431L954,1538L1065,1381Z" fill="#3e3e3e" stroke="#3e3e3e" stroke-width="1.51"/><path d="M-362,523L-89,722L-124,338Z" fill="#bbbbbb" stroke="#bbbbbb" stroke-width="1.51"/><path d="M244,1580L954,1538L476,1488Z" fill="#525252" stroke="#525252" stroke-width="1.51"/><path d="M-332,1607L30,1483L0,1394Z" fill="#6d6d6d" stroke="#6d6d6d" stroke-width="1.51"/><path d="M0,1394L30,1483L142,1298Z" fill="#696969" stroke="#696969" stroke-width="1.51"/><path d="M1385,639L1304,322L1082,321Z" fill="#797979" stroke="#797979" stroke-width="1.51"/><path d="M588,-322L694,-135L937,-499Z" fill="#c2c2c2" stroke="#c2c2c2" stroke-width="1.51"/><path d="M915,36L694,-135L633,269Z" fill="#b1b1b1" stroke="#b1b1b1" stroke-width="1.51"/><path d="M1091,157L1197,117L915,36Z" fill="#9b9b9b" stroke="#9b9b9b" stroke-width="1.51"/><path d="M1304,322L1197,117L1082,321Z" fill="#8a8a8a" stroke="#8a8a8a" stroke-width="1.51"/><path d="M1377,1246L1257,1086L1065,1381Z" fill="#3b3b3b" stroke="#3b3b3b" stroke-width="1.51"/><path d="M1377,1246L1415,1065L1257,1086Z" fill="#3d3d3d" stroke="#3d3d3d" stroke-width="1.51"/><path d="M1257,1086L1415,1065L1385,639Z" fill="#505050" stroke="#505050" stroke-width="1.51"/><path d="M954,1538L1180,1445L1065,1381Z" fill="#383838" stroke="#383838" stroke-width="1.51"/><path d="M-494,212L-362,523L-124,338Z" fill="#cdcdcd" stroke="#cdcdcd" stroke-width="1.51"/><path d="M1180,1445L1377,1246L1065,1381Z" fill="#343434" stroke="#343434" stroke-width="1.51"/><path d="M-298,969L-346,1222L0,1394Z" fill="#828282" stroke="#828282" stroke-width="1.51"/><path d="M-330,794L-346,1222L-298,969Z" fill="#999999" stroke="#999999" stroke-width="1.51"/><path d="M-494,212L-346,1222L-330,794Z" fill="#afafaf" stroke="#afafaf" stroke-width="1.51"/><path d="M694,-135L354,-230L369,51Z" fill="#cacaca" stroke="#cacaca" stroke-width="1.51"/><path d="M239,-26L-170,-31L137,214Z" fill="#d5d5d5" stroke="#d5d5d5" stroke-width="1.51"/><path d="M1419,1616L1458,1199L1377,1246Z" fill="#282828" stroke="#282828" stroke-width="1.51"/><path d="M1377,1246L1458,1199L1415,1065Z" fill="#353535" stroke="#353535" stroke-width="1.51"/><path d="M1415,1065L1578,786L1385,639Z" fill="#4f4f4f" stroke="#4f4f4f" stroke-width="1.51"/><path d="M1385,639L1588,575L1304,322Z" fill="#676767" stroke="#676767" stroke-width="1.51"/><path d="M1304,322L1550,284L1197,117Z" fill="#828282" stroke="#828282" stroke-width="1.51"/><path d="M1798,1166L1578,786L1415,1065Z" fill="#373737" stroke="#373737" stroke-width="1.51"/><path d="M1578,786L1588,575L1385,639Z" fill="#555555" stroke="#555555" stroke-width="1.51"/><path d="M18,-452L-170,-31L239,-26Z" fill="#e2e2e2" stroke="#e2e2e2" stroke-width="1.51"/><path d="M-117,222L-494,212L-124,338Z" fill="#d3d3d3" stroke="#d3d3d3" stroke-width="1.51"/><path d="M694,-135L588,-322L354,-230Z" fill="#cccccc" stroke="#cccccc" stroke-width="1.51"/><path d="M354,-230L18,-452L239,-26Z" fill="#dedede" stroke="#dedede" stroke-width="1.51"/><path d="M937,-499L694,-135L915,36Z" fill="#b7b7b7" stroke="#b7b7b7" stroke-width="1.51"/><path d="M1197,117L1287,-164L915,36Z" fill="#9d9d9d" stroke="#9d9d9d" stroke-width="1.51"/><path d="M1588,575L1550,284L1304,322Z" fill="#6b6b6b" stroke="#6b6b6b" stroke-width="1.51"/><path d="M-362,523L-494,212L-330,794Z" fill="#c2c2c2" stroke="#c2c2c2" stroke-width="1.51"/><path d="M-170,-31L-494,212L-117,222Z" fill="#dcdcdc" stroke="#dcdcdc" stroke-width="1.51"/><path d="M1439,-93L1287,-164L1197,117Z" fill="#959595" stroke="#959595" stroke-width="1.51"/><path d="M30,1483L-332,1607L244,1580Z" fill="#6a6a6a" stroke="#6a6a6a" stroke-width="1.51"/><path d="M-346,1222L-332,1607L0,1394Z" fill="#717171" stroke="#717171" stroke-width="1.51"/><path d="M-494,212L-332,1607L-346,1222Z" fill="#989898" stroke="#989898" stroke-width="1.51"/><path d="M1588,575L1853,498L1550,284Z" fill="#595959" stroke="#595959" stroke-width="1.51"/><path d="M1578,786L1759,665L1588,575Z" fill="#4b4b4b" stroke="#4b4b4b" stroke-width="1.51"/><path d="M1894,985L1759,665L1578,786Z" fill="#3d3d3d" stroke="#3d3d3d" stroke-width="1.51"/><path d="M1458,1199L1798,1166L1415,1065Z" fill="#2d2d2d" stroke="#2d2d2d" stroke-width="1.51"/><path d="M1180,1445L1419,1616L1377,1246Z" fill="#2b2b2b" stroke="#2b2b2b" stroke-width="1.51"/><path d="M954,1538L1419,1616L1180,1445Z" fill="#323232" stroke="#323232" stroke-width="1.51"/><path d="M244,1580L1419,1616L954,1538Z" fill="#414141" stroke="#414141" stroke-width="1.51"/><path d="M-332,1607L1419,1616L244,1580Z" fill="#585858" stroke="#585858" stroke-width="1.51"/><path d="M1550,284L1439,-93L1197,117Z" fill="#878787" stroke="#878787" stroke-width="1.51"/><path d="M1769,-225L1439,-93L1550,284Z" fill="#7d7d7d" stroke="#7d7d7d" stroke-width="1.51"/><path d="M-170,-31L-422,-205L-494,212Z" fill="#e7e7e7" stroke="#e7e7e7" stroke-width="1.51"/><path d="M588,-322L313,-474L354,-230Z" fill="#d8d8d8" stroke="#d8d8d8" stroke-width="1.51"/><path d="M937,-499L313,-474L588,-322Z" fill="#cecece" stroke="#cecece" stroke-width="1.51"/><path d="M313,-474L177,-467L354,-230Z" fill="#e0e0e0" stroke="#e0e0e0" stroke-width="1.51"/><path d="M1884,1605L1798,1166L1458,1199Z" fill="#181818" stroke="#181818" stroke-width="1.51"/><path d="M177,-467L18,-452L354,-230Z" fill="#e4e4e4" stroke="#e4e4e4" stroke-width="1.51"/><path d="M1287,-164L937,-499L915,36Z" fill="#acacac" stroke="#acacac" stroke-width="1.51"/><path d="M1388,-378L937,-499L1287,-164Z" fill="#a7a7a7" stroke="#a7a7a7" stroke-width="1.51"/><path d="M1759,665L1853,498L1588,575Z" fill="#4c4c4c" stroke="#4c4c4c" stroke-width="1.51"/><path d="M1968,776L1853,498L1759,665Z" fill="#414141" stroke="#414141" stroke-width="1.51"/><path d="M-381,-282L-422,-205L-170,-31Z" fill="#eeeeee" stroke="#eeeeee" stroke-width="1.51"/><path d="M1798,1166L1894,985L1578,786Z" fill="#303030" stroke="#303030" stroke-width="1.51"/><path d="M2011,488L1845,286L1853,498Z" fill="#4d4d4d" stroke="#4d4d4d" stroke-width="1.51"/><path d="M1853,498L1845,286L1550,284Z" fill="#5b5b5b" stroke="#5b5b5b" stroke-width="1.51"/><path d="M18,-452L-381,-282L-170,-31Z" fill="#eeeeee" stroke="#eeeeee" stroke-width="1.51"/><path d="M1655,-417L1388,-378L1439,-93Z" fill="#909090" stroke="#909090" stroke-width="1.51"/><path d="M1439,-93L1388,-378L1287,-164Z" fill="#989898" stroke="#989898" stroke-width="1.51"/><path d="M1894,985L1968,776L1759,665Z" fill="#363636" stroke="#363636" stroke-width="1.51"/><path d="M1968,776L2011,488L1853,498Z" fill="#414141" stroke="#414141" stroke-width="1.51"/><path d="M1845,286L1769,-225L1550,284Z" fill="#6c6c6c" stroke="#6c6c6c" stroke-width="1.51"/><path d="M1968,776L2056,923L2011,488Z" fill="#373737" stroke="#373737" stroke-width="1.51"/><path d="M1894,985L2056,923L1968,776Z" fill="#2d2d2d" stroke="#2d2d2d" stroke-width="1.51"/><path d="M2179,1372L2056,923L1894,985Z" fill="#1c1c1c" stroke="#1c1c1c" stroke-width="1.51"/><path d="M2179,1372L1894,985L1798,1166Z" fill="#161616" stroke="#161616" stroke-width="1.51"/><path d="M2003,-68L1769,-225L1845,286Z" fill="#6a6a6a" stroke="#6a6a6a" stroke-width="1.51"/><path d="M1419,1616L1884,1605L1458,1199Z" fill="#1a1a1a" stroke="#1a1a1a" stroke-width="1.51"/><path d="M1769,-225L1655,-417L1439,-93Z" fill="#848484" stroke="#848484" stroke-width="1.51"/><path d="M1388,-378L1739,-502L937,-499Z" fill="#a1a1a1" stroke="#a1a1a1" stroke-width="1.51"/><path d="M1769,-225L1739,-502L1655,-417Z" fill="#818181" stroke="#818181" stroke-width="1.51"/><path d="M2121,167L2003,-68L1845,286Z" fill="#5f5f5f" stroke="#5f5f5f" stroke-width="1.51"/><path d="M2121,167L1845,286L2011,488Z" fill="#535353" stroke="#535353" stroke-width="1.51"/><path d="M1419,1616L1987,1633L1884,1605Z" fill="#0f0f0f" stroke="#0f0f0f" stroke-width="1.51"/><path d="M1884,1605L2179,1372L1798,1166Z" fill="#030303" stroke="#030303" stroke-width="1.51"/><path d="M-332,1607L1987,1633L1419,1616Z" fill="#3a3a3a" stroke="#3a3a3a" stroke-width="1.51"/><path d="M2056,923L2121,167L2011,488Z" fill="#444444" stroke="#444444" stroke-width="1.51"/><path d="M2179,-455L1739,-502L1769,-225Z" fill="#777777" stroke="#777777" stroke-width="1.51"/><path d="M1655,-417L1739,-502L1388,-378Z" fill="#8c8c8c" stroke="#8c8c8c" stroke-width="1.51"/><path d="M1987,1633L2179,1372L1884,1605Z" fill="#000000" stroke="#000000" stroke-width="1.51"/><path d="M2056,923L2179,1372L2121,167Z" fill="#323232" stroke="#323232" stroke-width="1.51"/><path d="M2003,-68L2179,-455L1769,-225Z" fill="#707070" stroke="#707070" stroke-width="1.51"/><path d="M2121,167L2179,-455L2003,-68Z" fill="#6a6a6a" stroke="#6a6a6a" stroke-width="1.51"/><path d="M2179,1372L2179,-455L2121,167Z" fill="#4f4f4f" stroke="#4f4f4f" stroke-width="1.51"/></svg>